<mxfile host="app.diagrams.net" agent="Mozilla/5.0 (Windows NT 10.0; Win64; x64) AppleWebKit/537.36 (KHTML, like Gecko) Chrome/129.0.0.0 Safari/537.36" version="24.8.0">
  <diagram name="페이지-1" id="2S2_MXtxSLynds1eWwkH">
    <mxGraphModel dx="3400" dy="1723" grid="0" gridSize="10" guides="1" tooltips="1" connect="1" arrows="1" fold="1" page="0" pageScale="1" pageWidth="827" pageHeight="1169" math="0" shadow="0">
      <root>
        <mxCell id="0" />
        <mxCell id="1" parent="0" />
        <mxCell id="J6GnyJa3-i_cB1nW3Q2v-29" style="edgeStyle=orthogonalEdgeStyle;rounded=0;orthogonalLoop=1;jettySize=auto;html=1;exitX=0;exitY=0.5;exitDx=0;exitDy=0;entryX=0;entryY=0.25;entryDx=0;entryDy=0;" edge="1" parent="1" source="J6GnyJa3-i_cB1nW3Q2v-1" target="J6GnyJa3-i_cB1nW3Q2v-19">
          <mxGeometry relative="1" as="geometry" />
        </mxCell>
        <mxCell id="J6GnyJa3-i_cB1nW3Q2v-1" value="" style="rounded=0;whiteSpace=wrap;html=1;" vertex="1" parent="1">
          <mxGeometry x="-133" y="256" width="120" height="60" as="geometry" />
        </mxCell>
        <mxCell id="J6GnyJa3-i_cB1nW3Q2v-2" value="" style="rounded=0;whiteSpace=wrap;html=1;" vertex="1" parent="1">
          <mxGeometry x="-81" y="256" width="120" height="60" as="geometry" />
        </mxCell>
        <mxCell id="J6GnyJa3-i_cB1nW3Q2v-3" value="" style="rounded=0;whiteSpace=wrap;html=1;" vertex="1" parent="1">
          <mxGeometry x="-27" y="256" width="120" height="60" as="geometry" />
        </mxCell>
        <mxCell id="J6GnyJa3-i_cB1nW3Q2v-4" value="" style="rounded=0;whiteSpace=wrap;html=1;" vertex="1" parent="1">
          <mxGeometry x="25" y="256" width="120" height="60" as="geometry" />
        </mxCell>
        <mxCell id="J6GnyJa3-i_cB1nW3Q2v-5" value="" style="rounded=0;whiteSpace=wrap;html=1;" vertex="1" parent="1">
          <mxGeometry x="82" y="256" width="120" height="60" as="geometry" />
        </mxCell>
        <mxCell id="J6GnyJa3-i_cB1nW3Q2v-6" value="" style="rounded=0;whiteSpace=wrap;html=1;" vertex="1" parent="1">
          <mxGeometry x="140" y="256" width="67" height="60" as="geometry" />
        </mxCell>
        <mxCell id="J6GnyJa3-i_cB1nW3Q2v-7" value="" style="rounded=0;whiteSpace=wrap;html=1;" vertex="1" parent="1">
          <mxGeometry x="193" y="256" width="120" height="60" as="geometry" />
        </mxCell>
        <mxCell id="J6GnyJa3-i_cB1nW3Q2v-8" value="" style="rounded=0;whiteSpace=wrap;html=1;" vertex="1" parent="1">
          <mxGeometry x="250" y="256" width="66" height="60" as="geometry" />
        </mxCell>
        <mxCell id="J6GnyJa3-i_cB1nW3Q2v-9" value="" style="whiteSpace=wrap;html=1;aspect=fixed;" vertex="1" parent="1">
          <mxGeometry x="-7" y="500" width="67" height="67" as="geometry" />
        </mxCell>
        <mxCell id="J6GnyJa3-i_cB1nW3Q2v-10" value="" style="endArrow=classic;html=1;rounded=0;entryX=0;entryY=0.5;entryDx=0;entryDy=0;" edge="1" parent="1" target="J6GnyJa3-i_cB1nW3Q2v-9">
          <mxGeometry width="50" height="50" relative="1" as="geometry">
            <mxPoint x="-150" y="534" as="sourcePoint" />
            <mxPoint x="308" y="430" as="targetPoint" />
          </mxGeometry>
        </mxCell>
        <mxCell id="J6GnyJa3-i_cB1nW3Q2v-11" value="fft_input" style="edgeLabel;html=1;align=center;verticalAlign=middle;resizable=0;points=[];fontSize=16;" vertex="1" connectable="0" parent="J6GnyJa3-i_cB1nW3Q2v-10">
          <mxGeometry x="0.0712" y="-2" relative="1" as="geometry">
            <mxPoint as="offset" />
          </mxGeometry>
        </mxCell>
        <mxCell id="J6GnyJa3-i_cB1nW3Q2v-15" style="edgeStyle=orthogonalEdgeStyle;rounded=0;orthogonalLoop=1;jettySize=auto;html=1;exitX=1;exitY=0.75;exitDx=0;exitDy=0;entryX=0.773;entryY=1;entryDx=0;entryDy=0;entryPerimeter=0;" edge="1" parent="1" source="J6GnyJa3-i_cB1nW3Q2v-9" target="J6GnyJa3-i_cB1nW3Q2v-18">
          <mxGeometry relative="1" as="geometry">
            <mxPoint x="108" y="533" as="targetPoint" />
            <Array as="points">
              <mxPoint x="60" y="533" />
            </Array>
          </mxGeometry>
        </mxCell>
        <mxCell id="J6GnyJa3-i_cB1nW3Q2v-27" style="edgeStyle=orthogonalEdgeStyle;rounded=0;orthogonalLoop=1;jettySize=auto;html=1;exitX=1;exitY=0.25;exitDx=0;exitDy=0;" edge="1" parent="1" source="J6GnyJa3-i_cB1nW3Q2v-19">
          <mxGeometry relative="1" as="geometry">
            <mxPoint x="297.20001220703125" y="412" as="targetPoint" />
          </mxGeometry>
        </mxCell>
        <mxCell id="J6GnyJa3-i_cB1nW3Q2v-19" value="&lt;font style=&quot;font-size: 38px;&quot;&gt;BF&lt;/font&gt;" style="whiteSpace=wrap;html=1;aspect=fixed;" vertex="1" parent="1">
          <mxGeometry x="93" y="377" width="141" height="141" as="geometry" />
        </mxCell>
        <mxCell id="J6GnyJa3-i_cB1nW3Q2v-21" style="edgeStyle=orthogonalEdgeStyle;rounded=0;orthogonalLoop=1;jettySize=auto;html=1;exitX=0;exitY=0;exitDx=0;exitDy=0;entryX=0.994;entryY=0.397;entryDx=0;entryDy=0;entryPerimeter=0;" edge="1" parent="1" source="J6GnyJa3-i_cB1nW3Q2v-18" target="J6GnyJa3-i_cB1nW3Q2v-8">
          <mxGeometry relative="1" as="geometry">
            <Array as="points">
              <mxPoint x="408" y="513" />
              <mxPoint x="408" y="280" />
            </Array>
          </mxGeometry>
        </mxCell>
        <mxCell id="J6GnyJa3-i_cB1nW3Q2v-18" value="" style="verticalLabelPosition=bottom;shadow=0;dashed=0;align=center;html=1;verticalAlign=top;strokeWidth=1;shape=trapezoid;perimeter=none;rotation=90;" vertex="1" parent="1">
          <mxGeometry x="273" y="500" width="75" height="25" as="geometry" />
        </mxCell>
        <mxCell id="J6GnyJa3-i_cB1nW3Q2v-22" style="edgeStyle=orthogonalEdgeStyle;rounded=0;orthogonalLoop=1;jettySize=auto;html=1;exitX=1;exitY=0.75;exitDx=0;exitDy=0;entryX=0.235;entryY=1;entryDx=0;entryDy=0;entryPerimeter=0;" edge="1" parent="1" source="J6GnyJa3-i_cB1nW3Q2v-19" target="J6GnyJa3-i_cB1nW3Q2v-18">
          <mxGeometry relative="1" as="geometry">
            <Array as="points">
              <mxPoint x="234" y="493" />
            </Array>
          </mxGeometry>
        </mxCell>
        <mxCell id="J6GnyJa3-i_cB1nW3Q2v-24" style="edgeStyle=orthogonalEdgeStyle;rounded=0;orthogonalLoop=1;jettySize=auto;html=1;exitX=1;exitY=0.25;exitDx=0;exitDy=0;entryX=0.001;entryY=0.701;entryDx=0;entryDy=0;entryPerimeter=0;" edge="1" parent="1" source="J6GnyJa3-i_cB1nW3Q2v-9" target="J6GnyJa3-i_cB1nW3Q2v-19">
          <mxGeometry relative="1" as="geometry">
            <Array as="points">
              <mxPoint x="60" y="534" />
              <mxPoint x="73" y="534" />
              <mxPoint x="73" y="476" />
            </Array>
          </mxGeometry>
        </mxCell>
        <mxCell id="J6GnyJa3-i_cB1nW3Q2v-96" style="edgeStyle=orthogonalEdgeStyle;rounded=0;orthogonalLoop=1;jettySize=auto;html=1;exitX=0;exitY=0;exitDx=0;exitDy=0;entryX=0;entryY=0.75;entryDx=0;entryDy=0;" edge="1" parent="1" source="J6GnyJa3-i_cB1nW3Q2v-25" target="J6GnyJa3-i_cB1nW3Q2v-54">
          <mxGeometry relative="1" as="geometry">
            <Array as="points">
              <mxPoint x="407" y="390" />
              <mxPoint x="407" y="539" />
            </Array>
          </mxGeometry>
        </mxCell>
        <mxCell id="J6GnyJa3-i_cB1nW3Q2v-25" value="" style="verticalLabelPosition=bottom;shadow=0;dashed=0;align=center;html=1;verticalAlign=top;strokeWidth=1;shape=trapezoid;perimeter=none;rotation=90;" vertex="1" parent="1">
          <mxGeometry x="273" y="377" width="75" height="25" as="geometry" />
        </mxCell>
        <mxCell id="J6GnyJa3-i_cB1nW3Q2v-30" value="" style="endArrow=none;html=1;rounded=0;" edge="1" parent="1">
          <mxGeometry width="50" height="50" relative="1" as="geometry">
            <mxPoint x="20" y="413" as="sourcePoint" />
            <mxPoint x="20" y="359" as="targetPoint" />
          </mxGeometry>
        </mxCell>
        <mxCell id="J6GnyJa3-i_cB1nW3Q2v-31" value="" style="endArrow=classic;html=1;rounded=0;entryX=0.136;entryY=1;entryDx=0;entryDy=0;entryPerimeter=0;" edge="1" parent="1" target="J6GnyJa3-i_cB1nW3Q2v-25">
          <mxGeometry width="50" height="50" relative="1" as="geometry">
            <mxPoint x="20" y="362" as="sourcePoint" />
            <mxPoint x="62" y="381" as="targetPoint" />
          </mxGeometry>
        </mxCell>
        <mxCell id="J6GnyJa3-i_cB1nW3Q2v-32" style="edgeStyle=orthogonalEdgeStyle;rounded=0;orthogonalLoop=1;jettySize=auto;html=1;exitX=0;exitY=0.5;exitDx=0;exitDy=0;entryX=0;entryY=0.25;entryDx=0;entryDy=0;" edge="1" parent="1" source="J6GnyJa3-i_cB1nW3Q2v-33" target="J6GnyJa3-i_cB1nW3Q2v-46">
          <mxGeometry relative="1" as="geometry">
            <Array as="points">
              <mxPoint x="544" y="269" />
              <mxPoint x="544" y="397" />
            </Array>
          </mxGeometry>
        </mxCell>
        <mxCell id="J6GnyJa3-i_cB1nW3Q2v-33" value="" style="rounded=0;whiteSpace=wrap;html=1;" vertex="1" parent="1">
          <mxGeometry x="648" y="241" width="120" height="60" as="geometry" />
        </mxCell>
        <mxCell id="J6GnyJa3-i_cB1nW3Q2v-34" value="" style="rounded=0;whiteSpace=wrap;html=1;" vertex="1" parent="1">
          <mxGeometry x="713" y="241" width="120" height="60" as="geometry" />
        </mxCell>
        <mxCell id="J6GnyJa3-i_cB1nW3Q2v-35" value="" style="rounded=0;whiteSpace=wrap;html=1;" vertex="1" parent="1">
          <mxGeometry x="782" y="241" width="120" height="60" as="geometry" />
        </mxCell>
        <mxCell id="J6GnyJa3-i_cB1nW3Q2v-40" value="" style="rounded=0;whiteSpace=wrap;html=1;" vertex="1" parent="1">
          <mxGeometry x="852" y="241" width="66" height="60" as="geometry" />
        </mxCell>
        <mxCell id="J6GnyJa3-i_cB1nW3Q2v-41" value="" style="whiteSpace=wrap;html=1;aspect=fixed;" vertex="1" parent="1">
          <mxGeometry x="595" y="485" width="67" height="67" as="geometry" />
        </mxCell>
        <mxCell id="J6GnyJa3-i_cB1nW3Q2v-42" value="" style="endArrow=classic;html=1;rounded=0;entryX=0;entryY=0.5;entryDx=0;entryDy=0;" edge="1" parent="1" target="J6GnyJa3-i_cB1nW3Q2v-41" source="J6GnyJa3-i_cB1nW3Q2v-54">
          <mxGeometry width="50" height="50" relative="1" as="geometry">
            <mxPoint x="452" y="519" as="sourcePoint" />
            <mxPoint x="910" y="415" as="targetPoint" />
          </mxGeometry>
        </mxCell>
        <mxCell id="J6GnyJa3-i_cB1nW3Q2v-44" style="edgeStyle=orthogonalEdgeStyle;rounded=0;orthogonalLoop=1;jettySize=auto;html=1;exitX=1;exitY=0.75;exitDx=0;exitDy=0;entryX=0.773;entryY=1;entryDx=0;entryDy=0;entryPerimeter=0;" edge="1" parent="1" source="J6GnyJa3-i_cB1nW3Q2v-41" target="J6GnyJa3-i_cB1nW3Q2v-48">
          <mxGeometry relative="1" as="geometry">
            <mxPoint x="710" y="518" as="targetPoint" />
            <Array as="points">
              <mxPoint x="662" y="518" />
            </Array>
          </mxGeometry>
        </mxCell>
        <mxCell id="J6GnyJa3-i_cB1nW3Q2v-45" style="edgeStyle=orthogonalEdgeStyle;rounded=0;orthogonalLoop=1;jettySize=auto;html=1;exitX=1;exitY=0.25;exitDx=0;exitDy=0;" edge="1" parent="1" source="J6GnyJa3-i_cB1nW3Q2v-46">
          <mxGeometry relative="1" as="geometry">
            <mxPoint x="899.2000122070312" y="397" as="targetPoint" />
          </mxGeometry>
        </mxCell>
        <mxCell id="J6GnyJa3-i_cB1nW3Q2v-46" value="&lt;font style=&quot;font-size: 38px;&quot;&gt;BF&lt;/font&gt;" style="whiteSpace=wrap;html=1;aspect=fixed;" vertex="1" parent="1">
          <mxGeometry x="695" y="362" width="141" height="141" as="geometry" />
        </mxCell>
        <mxCell id="J6GnyJa3-i_cB1nW3Q2v-47" style="edgeStyle=orthogonalEdgeStyle;rounded=0;orthogonalLoop=1;jettySize=auto;html=1;exitX=0;exitY=0;exitDx=0;exitDy=0;entryX=0.994;entryY=0.397;entryDx=0;entryDy=0;entryPerimeter=0;" edge="1" parent="1" source="J6GnyJa3-i_cB1nW3Q2v-48" target="J6GnyJa3-i_cB1nW3Q2v-40">
          <mxGeometry relative="1" as="geometry">
            <Array as="points">
              <mxPoint x="992" y="498" />
              <mxPoint x="992" y="265" />
            </Array>
          </mxGeometry>
        </mxCell>
        <mxCell id="J6GnyJa3-i_cB1nW3Q2v-48" value="" style="verticalLabelPosition=bottom;shadow=0;dashed=0;align=center;html=1;verticalAlign=top;strokeWidth=1;shape=trapezoid;perimeter=none;rotation=90;" vertex="1" parent="1">
          <mxGeometry x="875" y="485" width="75" height="25" as="geometry" />
        </mxCell>
        <mxCell id="J6GnyJa3-i_cB1nW3Q2v-49" style="edgeStyle=orthogonalEdgeStyle;rounded=0;orthogonalLoop=1;jettySize=auto;html=1;exitX=1;exitY=0.75;exitDx=0;exitDy=0;entryX=0.235;entryY=1;entryDx=0;entryDy=0;entryPerimeter=0;" edge="1" parent="1" source="J6GnyJa3-i_cB1nW3Q2v-46" target="J6GnyJa3-i_cB1nW3Q2v-48">
          <mxGeometry relative="1" as="geometry">
            <Array as="points">
              <mxPoint x="836" y="478" />
            </Array>
          </mxGeometry>
        </mxCell>
        <mxCell id="J6GnyJa3-i_cB1nW3Q2v-50" style="edgeStyle=orthogonalEdgeStyle;rounded=0;orthogonalLoop=1;jettySize=auto;html=1;exitX=1;exitY=0.25;exitDx=0;exitDy=0;entryX=0.001;entryY=0.701;entryDx=0;entryDy=0;entryPerimeter=0;" edge="1" parent="1" source="J6GnyJa3-i_cB1nW3Q2v-41" target="J6GnyJa3-i_cB1nW3Q2v-46">
          <mxGeometry relative="1" as="geometry">
            <Array as="points">
              <mxPoint x="662" y="519" />
              <mxPoint x="675" y="519" />
              <mxPoint x="675" y="461" />
            </Array>
          </mxGeometry>
        </mxCell>
        <mxCell id="J6GnyJa3-i_cB1nW3Q2v-97" style="edgeStyle=orthogonalEdgeStyle;rounded=0;orthogonalLoop=1;jettySize=auto;html=1;exitX=0;exitY=0;exitDx=0;exitDy=0;entryX=0;entryY=0.5;entryDx=0;entryDy=0;" edge="1" parent="1" source="J6GnyJa3-i_cB1nW3Q2v-51" target="J6GnyJa3-i_cB1nW3Q2v-75">
          <mxGeometry relative="1" as="geometry">
            <Array as="points">
              <mxPoint x="993" y="375" />
              <mxPoint x="993" y="501" />
            </Array>
          </mxGeometry>
        </mxCell>
        <mxCell id="J6GnyJa3-i_cB1nW3Q2v-51" value="" style="verticalLabelPosition=bottom;shadow=0;dashed=0;align=center;html=1;verticalAlign=top;strokeWidth=1;shape=trapezoid;perimeter=none;rotation=90;" vertex="1" parent="1">
          <mxGeometry x="875" y="362" width="75" height="25" as="geometry" />
        </mxCell>
        <mxCell id="J6GnyJa3-i_cB1nW3Q2v-52" value="" style="endArrow=none;html=1;rounded=0;" edge="1" parent="1">
          <mxGeometry width="50" height="50" relative="1" as="geometry">
            <mxPoint x="622" y="398" as="sourcePoint" />
            <mxPoint x="622" y="344" as="targetPoint" />
          </mxGeometry>
        </mxCell>
        <mxCell id="J6GnyJa3-i_cB1nW3Q2v-53" value="" style="endArrow=classic;html=1;rounded=0;entryX=0.136;entryY=1;entryDx=0;entryDy=0;entryPerimeter=0;" edge="1" parent="1" target="J6GnyJa3-i_cB1nW3Q2v-51">
          <mxGeometry width="50" height="50" relative="1" as="geometry">
            <mxPoint x="622" y="347" as="sourcePoint" />
            <mxPoint x="664" y="366" as="targetPoint" />
          </mxGeometry>
        </mxCell>
        <mxCell id="J6GnyJa3-i_cB1nW3Q2v-55" value="" style="endArrow=classic;html=1;rounded=0;entryX=0;entryY=0.5;entryDx=0;entryDy=0;" edge="1" parent="1" target="J6GnyJa3-i_cB1nW3Q2v-54">
          <mxGeometry width="50" height="50" relative="1" as="geometry">
            <mxPoint x="452" y="519" as="sourcePoint" />
            <mxPoint x="595" y="519" as="targetPoint" />
          </mxGeometry>
        </mxCell>
        <mxCell id="J6GnyJa3-i_cB1nW3Q2v-54" value="&lt;font style=&quot;font-size: 30px;&quot;&gt;W&lt;/font&gt;" style="whiteSpace=wrap;html=1;aspect=fixed;" vertex="1" parent="1">
          <mxGeometry x="441" y="478.5" width="80" height="80" as="geometry" />
        </mxCell>
        <mxCell id="J6GnyJa3-i_cB1nW3Q2v-57" style="edgeStyle=orthogonalEdgeStyle;rounded=0;orthogonalLoop=1;jettySize=auto;html=1;exitX=0;exitY=0.5;exitDx=0;exitDy=0;entryX=0;entryY=0.25;entryDx=0;entryDy=0;" edge="1" parent="1" source="J6GnyJa3-i_cB1nW3Q2v-58" target="J6GnyJa3-i_cB1nW3Q2v-66">
          <mxGeometry relative="1" as="geometry">
            <Array as="points">
              <mxPoint x="1147" y="251" />
              <mxPoint x="1147" y="379" />
            </Array>
          </mxGeometry>
        </mxCell>
        <mxCell id="J6GnyJa3-i_cB1nW3Q2v-58" value="" style="rounded=0;whiteSpace=wrap;html=1;" vertex="1" parent="1">
          <mxGeometry x="1251" y="223" width="120" height="60" as="geometry" />
        </mxCell>
        <mxCell id="J6GnyJa3-i_cB1nW3Q2v-61" value="" style="rounded=0;whiteSpace=wrap;html=1;" vertex="1" parent="1">
          <mxGeometry x="1316" y="223" width="66" height="60" as="geometry" />
        </mxCell>
        <mxCell id="J6GnyJa3-i_cB1nW3Q2v-62" value="" style="whiteSpace=wrap;html=1;aspect=fixed;" vertex="1" parent="1">
          <mxGeometry x="1198" y="467" width="67" height="67" as="geometry" />
        </mxCell>
        <mxCell id="J6GnyJa3-i_cB1nW3Q2v-63" value="" style="endArrow=classic;html=1;rounded=0;entryX=0;entryY=0.5;entryDx=0;entryDy=0;" edge="1" parent="1" source="J6GnyJa3-i_cB1nW3Q2v-75" target="J6GnyJa3-i_cB1nW3Q2v-62">
          <mxGeometry width="50" height="50" relative="1" as="geometry">
            <mxPoint x="1055" y="501" as="sourcePoint" />
            <mxPoint x="1513" y="397" as="targetPoint" />
          </mxGeometry>
        </mxCell>
        <mxCell id="J6GnyJa3-i_cB1nW3Q2v-64" style="edgeStyle=orthogonalEdgeStyle;rounded=0;orthogonalLoop=1;jettySize=auto;html=1;exitX=1;exitY=0.75;exitDx=0;exitDy=0;entryX=0.773;entryY=1;entryDx=0;entryDy=0;entryPerimeter=0;" edge="1" parent="1" source="J6GnyJa3-i_cB1nW3Q2v-62" target="J6GnyJa3-i_cB1nW3Q2v-68">
          <mxGeometry relative="1" as="geometry">
            <mxPoint x="1313" y="500" as="targetPoint" />
            <Array as="points">
              <mxPoint x="1265" y="500" />
            </Array>
          </mxGeometry>
        </mxCell>
        <mxCell id="J6GnyJa3-i_cB1nW3Q2v-65" style="edgeStyle=orthogonalEdgeStyle;rounded=0;orthogonalLoop=1;jettySize=auto;html=1;exitX=1;exitY=0.25;exitDx=0;exitDy=0;" edge="1" parent="1" source="J6GnyJa3-i_cB1nW3Q2v-66">
          <mxGeometry relative="1" as="geometry">
            <mxPoint x="1502.2000122070312" y="379" as="targetPoint" />
          </mxGeometry>
        </mxCell>
        <mxCell id="J6GnyJa3-i_cB1nW3Q2v-66" value="&lt;font style=&quot;font-size: 38px;&quot;&gt;BF&lt;/font&gt;" style="whiteSpace=wrap;html=1;aspect=fixed;" vertex="1" parent="1">
          <mxGeometry x="1298" y="344" width="141" height="141" as="geometry" />
        </mxCell>
        <mxCell id="J6GnyJa3-i_cB1nW3Q2v-67" style="edgeStyle=orthogonalEdgeStyle;rounded=0;orthogonalLoop=1;jettySize=auto;html=1;exitX=0;exitY=0;exitDx=0;exitDy=0;entryX=0.994;entryY=0.397;entryDx=0;entryDy=0;entryPerimeter=0;" edge="1" parent="1" source="J6GnyJa3-i_cB1nW3Q2v-68" target="J6GnyJa3-i_cB1nW3Q2v-61">
          <mxGeometry relative="1" as="geometry">
            <Array as="points">
              <mxPoint x="1595" y="480" />
              <mxPoint x="1595" y="247" />
            </Array>
          </mxGeometry>
        </mxCell>
        <mxCell id="J6GnyJa3-i_cB1nW3Q2v-68" value="" style="verticalLabelPosition=bottom;shadow=0;dashed=0;align=center;html=1;verticalAlign=top;strokeWidth=1;shape=trapezoid;perimeter=none;rotation=90;" vertex="1" parent="1">
          <mxGeometry x="1478" y="467" width="75" height="25" as="geometry" />
        </mxCell>
        <mxCell id="J6GnyJa3-i_cB1nW3Q2v-69" style="edgeStyle=orthogonalEdgeStyle;rounded=0;orthogonalLoop=1;jettySize=auto;html=1;exitX=1;exitY=0.75;exitDx=0;exitDy=0;entryX=0.235;entryY=1;entryDx=0;entryDy=0;entryPerimeter=0;" edge="1" parent="1" source="J6GnyJa3-i_cB1nW3Q2v-66" target="J6GnyJa3-i_cB1nW3Q2v-68">
          <mxGeometry relative="1" as="geometry">
            <Array as="points">
              <mxPoint x="1439" y="460" />
            </Array>
          </mxGeometry>
        </mxCell>
        <mxCell id="J6GnyJa3-i_cB1nW3Q2v-70" style="edgeStyle=orthogonalEdgeStyle;rounded=0;orthogonalLoop=1;jettySize=auto;html=1;exitX=1;exitY=0.25;exitDx=0;exitDy=0;entryX=0.001;entryY=0.701;entryDx=0;entryDy=0;entryPerimeter=0;" edge="1" parent="1" source="J6GnyJa3-i_cB1nW3Q2v-62" target="J6GnyJa3-i_cB1nW3Q2v-66">
          <mxGeometry relative="1" as="geometry">
            <Array as="points">
              <mxPoint x="1265" y="501" />
              <mxPoint x="1278" y="501" />
              <mxPoint x="1278" y="443" />
            </Array>
          </mxGeometry>
        </mxCell>
        <mxCell id="J6GnyJa3-i_cB1nW3Q2v-98" style="edgeStyle=orthogonalEdgeStyle;rounded=0;orthogonalLoop=1;jettySize=auto;html=1;exitX=0;exitY=0;exitDx=0;exitDy=0;entryX=0;entryY=0.5;entryDx=0;entryDy=0;" edge="1" parent="1" source="J6GnyJa3-i_cB1nW3Q2v-71" target="J6GnyJa3-i_cB1nW3Q2v-93">
          <mxGeometry relative="1" as="geometry">
            <Array as="points">
              <mxPoint x="1595" y="357" />
              <mxPoint x="1595" y="475" />
            </Array>
          </mxGeometry>
        </mxCell>
        <mxCell id="J6GnyJa3-i_cB1nW3Q2v-71" value="" style="verticalLabelPosition=bottom;shadow=0;dashed=0;align=center;html=1;verticalAlign=top;strokeWidth=1;shape=trapezoid;perimeter=none;rotation=90;" vertex="1" parent="1">
          <mxGeometry x="1478" y="344" width="75" height="25" as="geometry" />
        </mxCell>
        <mxCell id="J6GnyJa3-i_cB1nW3Q2v-72" value="" style="endArrow=none;html=1;rounded=0;" edge="1" parent="1">
          <mxGeometry width="50" height="50" relative="1" as="geometry">
            <mxPoint x="1225" y="380" as="sourcePoint" />
            <mxPoint x="1225" y="326" as="targetPoint" />
          </mxGeometry>
        </mxCell>
        <mxCell id="J6GnyJa3-i_cB1nW3Q2v-73" value="" style="endArrow=classic;html=1;rounded=0;entryX=0.136;entryY=1;entryDx=0;entryDy=0;entryPerimeter=0;" edge="1" parent="1" target="J6GnyJa3-i_cB1nW3Q2v-71">
          <mxGeometry width="50" height="50" relative="1" as="geometry">
            <mxPoint x="1225" y="329" as="sourcePoint" />
            <mxPoint x="1267" y="348" as="targetPoint" />
          </mxGeometry>
        </mxCell>
        <mxCell id="J6GnyJa3-i_cB1nW3Q2v-74" value="" style="endArrow=classic;html=1;rounded=0;entryX=0;entryY=0.5;entryDx=0;entryDy=0;" edge="1" parent="1" target="J6GnyJa3-i_cB1nW3Q2v-75">
          <mxGeometry width="50" height="50" relative="1" as="geometry">
            <mxPoint x="1055" y="501" as="sourcePoint" />
            <mxPoint x="1198" y="501" as="targetPoint" />
          </mxGeometry>
        </mxCell>
        <mxCell id="J6GnyJa3-i_cB1nW3Q2v-75" value="&lt;font style=&quot;font-size: 30px;&quot;&gt;W&lt;/font&gt;" style="whiteSpace=wrap;html=1;aspect=fixed;" vertex="1" parent="1">
          <mxGeometry x="1044" y="460.5" width="80" height="80" as="geometry" />
        </mxCell>
        <mxCell id="J6GnyJa3-i_cB1nW3Q2v-95" style="edgeStyle=orthogonalEdgeStyle;rounded=0;orthogonalLoop=1;jettySize=auto;html=1;exitX=0;exitY=0.25;exitDx=0;exitDy=0;entryX=0;entryY=0.25;entryDx=0;entryDy=0;" edge="1" parent="1" source="J6GnyJa3-i_cB1nW3Q2v-79" target="J6GnyJa3-i_cB1nW3Q2v-84">
          <mxGeometry relative="1" as="geometry">
            <Array as="points">
              <mxPoint x="1778" y="213" />
              <mxPoint x="1778" y="354" />
            </Array>
          </mxGeometry>
        </mxCell>
        <mxCell id="J6GnyJa3-i_cB1nW3Q2v-79" value="" style="rounded=0;whiteSpace=wrap;html=1;" vertex="1" parent="1">
          <mxGeometry x="1919" y="197.75" width="66" height="60" as="geometry" />
        </mxCell>
        <mxCell id="J6GnyJa3-i_cB1nW3Q2v-80" value="" style="whiteSpace=wrap;html=1;aspect=fixed;" vertex="1" parent="1">
          <mxGeometry x="1801" y="441.75" width="67" height="67" as="geometry" />
        </mxCell>
        <mxCell id="J6GnyJa3-i_cB1nW3Q2v-81" value="" style="endArrow=classic;html=1;rounded=0;entryX=0;entryY=0.5;entryDx=0;entryDy=0;" edge="1" parent="1" source="J6GnyJa3-i_cB1nW3Q2v-93" target="J6GnyJa3-i_cB1nW3Q2v-80">
          <mxGeometry width="50" height="50" relative="1" as="geometry">
            <mxPoint x="1658" y="475.75" as="sourcePoint" />
            <mxPoint x="2116" y="371.75" as="targetPoint" />
          </mxGeometry>
        </mxCell>
        <mxCell id="J6GnyJa3-i_cB1nW3Q2v-82" style="edgeStyle=orthogonalEdgeStyle;rounded=0;orthogonalLoop=1;jettySize=auto;html=1;exitX=1;exitY=0.75;exitDx=0;exitDy=0;entryX=0.773;entryY=1;entryDx=0;entryDy=0;entryPerimeter=0;" edge="1" parent="1" source="J6GnyJa3-i_cB1nW3Q2v-80" target="J6GnyJa3-i_cB1nW3Q2v-86">
          <mxGeometry relative="1" as="geometry">
            <mxPoint x="1916" y="474.75" as="targetPoint" />
            <Array as="points">
              <mxPoint x="1868" y="474.75" />
            </Array>
          </mxGeometry>
        </mxCell>
        <mxCell id="J6GnyJa3-i_cB1nW3Q2v-83" style="edgeStyle=orthogonalEdgeStyle;rounded=0;orthogonalLoop=1;jettySize=auto;html=1;exitX=1;exitY=0.25;exitDx=0;exitDy=0;" edge="1" parent="1" source="J6GnyJa3-i_cB1nW3Q2v-84">
          <mxGeometry relative="1" as="geometry">
            <mxPoint x="2105.2000122070312" y="353.75" as="targetPoint" />
          </mxGeometry>
        </mxCell>
        <mxCell id="J6GnyJa3-i_cB1nW3Q2v-84" value="&lt;font style=&quot;font-size: 38px;&quot;&gt;BF&lt;/font&gt;" style="whiteSpace=wrap;html=1;aspect=fixed;" vertex="1" parent="1">
          <mxGeometry x="1901" y="318.75" width="141" height="141" as="geometry" />
        </mxCell>
        <mxCell id="J6GnyJa3-i_cB1nW3Q2v-85" style="edgeStyle=orthogonalEdgeStyle;rounded=0;orthogonalLoop=1;jettySize=auto;html=1;exitX=0;exitY=0;exitDx=0;exitDy=0;entryX=0.994;entryY=0.397;entryDx=0;entryDy=0;entryPerimeter=0;" edge="1" parent="1" source="J6GnyJa3-i_cB1nW3Q2v-86" target="J6GnyJa3-i_cB1nW3Q2v-79">
          <mxGeometry relative="1" as="geometry">
            <Array as="points">
              <mxPoint x="2198" y="454.75" />
              <mxPoint x="2198" y="221.75" />
            </Array>
          </mxGeometry>
        </mxCell>
        <mxCell id="J6GnyJa3-i_cB1nW3Q2v-86" value="" style="verticalLabelPosition=bottom;shadow=0;dashed=0;align=center;html=1;verticalAlign=top;strokeWidth=1;shape=trapezoid;perimeter=none;rotation=90;" vertex="1" parent="1">
          <mxGeometry x="2081" y="441.75" width="75" height="25" as="geometry" />
        </mxCell>
        <mxCell id="J6GnyJa3-i_cB1nW3Q2v-87" style="edgeStyle=orthogonalEdgeStyle;rounded=0;orthogonalLoop=1;jettySize=auto;html=1;exitX=1;exitY=0.75;exitDx=0;exitDy=0;entryX=0.235;entryY=1;entryDx=0;entryDy=0;entryPerimeter=0;" edge="1" parent="1" source="J6GnyJa3-i_cB1nW3Q2v-84" target="J6GnyJa3-i_cB1nW3Q2v-86">
          <mxGeometry relative="1" as="geometry">
            <Array as="points">
              <mxPoint x="2042" y="434.75" />
            </Array>
          </mxGeometry>
        </mxCell>
        <mxCell id="J6GnyJa3-i_cB1nW3Q2v-88" style="edgeStyle=orthogonalEdgeStyle;rounded=0;orthogonalLoop=1;jettySize=auto;html=1;exitX=1;exitY=0.25;exitDx=0;exitDy=0;entryX=0.001;entryY=0.701;entryDx=0;entryDy=0;entryPerimeter=0;" edge="1" parent="1" source="J6GnyJa3-i_cB1nW3Q2v-80" target="J6GnyJa3-i_cB1nW3Q2v-84">
          <mxGeometry relative="1" as="geometry">
            <Array as="points">
              <mxPoint x="1868" y="475.75" />
              <mxPoint x="1881" y="475.75" />
              <mxPoint x="1881" y="417.75" />
            </Array>
          </mxGeometry>
        </mxCell>
        <mxCell id="J6GnyJa3-i_cB1nW3Q2v-100" style="edgeStyle=orthogonalEdgeStyle;rounded=0;orthogonalLoop=1;jettySize=auto;html=1;exitX=0;exitY=0;exitDx=0;exitDy=0;entryX=0;entryY=0.5;entryDx=0;entryDy=0;" edge="1" parent="1" source="J6GnyJa3-i_cB1nW3Q2v-89" target="J6GnyJa3-i_cB1nW3Q2v-99">
          <mxGeometry relative="1" as="geometry" />
        </mxCell>
        <mxCell id="J6GnyJa3-i_cB1nW3Q2v-89" value="" style="verticalLabelPosition=bottom;shadow=0;dashed=0;align=center;html=1;verticalAlign=top;strokeWidth=1;shape=trapezoid;perimeter=none;rotation=90;" vertex="1" parent="1">
          <mxGeometry x="2081" y="318.75" width="75" height="25" as="geometry" />
        </mxCell>
        <mxCell id="J6GnyJa3-i_cB1nW3Q2v-90" value="" style="endArrow=none;html=1;rounded=0;" edge="1" parent="1">
          <mxGeometry width="50" height="50" relative="1" as="geometry">
            <mxPoint x="1828" y="354.75" as="sourcePoint" />
            <mxPoint x="1828" y="300.75" as="targetPoint" />
          </mxGeometry>
        </mxCell>
        <mxCell id="J6GnyJa3-i_cB1nW3Q2v-91" value="" style="endArrow=classic;html=1;rounded=0;entryX=0.136;entryY=1;entryDx=0;entryDy=0;entryPerimeter=0;" edge="1" parent="1" target="J6GnyJa3-i_cB1nW3Q2v-89">
          <mxGeometry width="50" height="50" relative="1" as="geometry">
            <mxPoint x="1828" y="303.75" as="sourcePoint" />
            <mxPoint x="1870" y="322.75" as="targetPoint" />
          </mxGeometry>
        </mxCell>
        <mxCell id="J6GnyJa3-i_cB1nW3Q2v-92" value="" style="endArrow=classic;html=1;rounded=0;entryX=0;entryY=0.5;entryDx=0;entryDy=0;" edge="1" parent="1" target="J6GnyJa3-i_cB1nW3Q2v-93">
          <mxGeometry width="50" height="50" relative="1" as="geometry">
            <mxPoint x="1658" y="475.75" as="sourcePoint" />
            <mxPoint x="1801" y="475.75" as="targetPoint" />
          </mxGeometry>
        </mxCell>
        <mxCell id="J6GnyJa3-i_cB1nW3Q2v-93" value="&lt;font style=&quot;font-size: 30px;&quot;&gt;W&lt;/font&gt;" style="whiteSpace=wrap;html=1;aspect=fixed;" vertex="1" parent="1">
          <mxGeometry x="1647" y="435.25" width="80" height="80" as="geometry" />
        </mxCell>
        <mxCell id="J6GnyJa3-i_cB1nW3Q2v-99" value="" style="rounded=0;whiteSpace=wrap;html=1;" vertex="1" parent="1">
          <mxGeometry x="2264" y="424.25" width="66" height="60" as="geometry" />
        </mxCell>
      </root>
    </mxGraphModel>
  </diagram>
</mxfile>
